# xmcd
#
# Track frame offsets:
#	150
#	18570
#	39205
#	60055
#	81100
#	100614
#	118819
#	134399
#	150429
#	167632
#	186083
#	208669
#
# Disc length: 2915 seconds
#
# Revision: 0
# Processed by: cddbd v1.5.2PL0 Copyright (c) Steve Scherf et al.
# Submitted via: audiograbber 1.83.01
#
DISCID=8c0b610c
DTITLE=Julie Miller - Broken Things
DYEAR=1999
DGENRE=Country
TTITLE0=Ride The Wind To Me [with Buddy Miller]
TTITLE1=I Know Why The River Runs
TTITLE2=I Need You [with Buddy Miller]
TTITLE3=I Still Cry [with Patty Griffin]
TTITLE4=Out In The Rain [with Buddy Miller]
TTITLE5=Orphan Train [with Victoria Williams]
TTITLE6=Broken Things [with Emmylou Harris]
TTITLE7=All My Tears [with Buddy Miller]
TTITLE8=Two Soldiers [with Emmylou Harris]
TTITLE9=Maggie [with Teresa Williams]
TTITLE10=Strange Lover [with Steve Earle]
TTITLE11=The Speed Of Light
EXTD=
EXTT0=
EXTT1=
EXTT2=
EXTT3=
EXTT4=
EXTT5=
EXTT6=
EXTT7=
EXTT8=
EXTT9=
EXTT10=
EXTT11=
PLAYORDER=
